<svg xmlns="http://www.w3.org/2000/svg" xmlns:xlink="http://www.w3.org/1999/xlink" viewBox="0 0 438.43 84.78"><defs><style>.cls-1{isolation:isolate;}.cls-2{fill:#f7931e;}.cls-3{fill:#f77e00;}.cls-4{fill:url(#linear-gradient);}.cls-10,.cls-12,.cls-5,.cls-6{mix-blend-mode:multiply;}.cls-5{fill:url(#linear-gradient-2);}.cls-6{fill:url(#linear-gradient-3);}.cls-7{fill:#333;}.cls-8{fill:#d4b79e;}.cls-9{fill:#f0d0b4;}.cls-10,.cls-12{opacity:0.2;}.cls-11{fill:#3d3d3d;}.cls-13{fill:#faefe1;}.cls-14{fill:#ed3940;}.cls-15{fill:#4d4d4d;}.cls-16{fill:url(#linear-gradient-4);}</style><linearGradient id="linear-gradient" x1="91.97" y1="100.08" x2="12.92" y2="21.03" gradientUnits="userSpaceOnUse"><stop offset="0" stop-color="#b04d00"/><stop offset="0.49" stop-color="#ea7000"/><stop offset="1" stop-color="#ffd12a"/></linearGradient><linearGradient id="linear-gradient-2" x1="29.88" y1="59.78" x2="51.18" y2="74.88" gradientUnits="userSpaceOnUse"><stop offset="0" stop-color="#b04d00"/><stop offset="1" stop-color="#fff"/></linearGradient><linearGradient id="linear-gradient-3" x1="25.67" y1="11.94" x2="39.71" y2="56.23" xlink:href="#linear-gradient-2"/><linearGradient id="linear-gradient-4" x1="105.44" y1="44.19" x2="438.43" y2="44.19" xlink:href="#linear-gradient"/></defs><g class="cls-1"><g id="Слой_2" data-name="Слой 2"><g id="Слой_1-2" data-name="Слой 1"><polygon class="cls-2" points="54.8 64.94 45.46 78.19 31.84 78.19 44.11 60.78 45.06 61.15 48.86 62.63 49.26 62.79 51.19 63.54 53.91 64.59 54.8 64.94"/><polygon class="cls-3" points="55.53 65.93 46.3 79.19 41.76 79.19 49.34 68.3 51.97 64.53 54.65 65.58 55.53 65.93"/><path class="cls-4" d="M44.33,84.78A40.61,40.61,0,0,1,16.18,73.44,42.55,42.55,0,0,1,3,43.93a42.74,42.74,0,0,1,11-30.41A40.62,40.62,0,0,1,72.5,11.36h0A9.11,9.11,0,0,1,73,24L14.61,80.1a8.53,8.53,0,0,1-11.85,0h0a9.05,9.05,0,0,1,0-13L53.09,19.61a23.16,23.16,0,0,0-9.61-1.67,23.42,23.42,0,0,0-16.61,7.79,24.93,24.93,0,0,0,1.21,34.6,23.32,23.32,0,0,0,33.73-1.25,24.46,24.46,0,0,0,5.75-10.95,8.81,8.81,0,0,1,8.19-6.89h0a8.92,8.92,0,0,1,8.8,11.11,42.6,42.6,0,0,1-9.94,18.94A40.76,40.76,0,0,1,44.33,84.78Z"/><path class="cls-5" d="M62.12,58.73c-.1.11-.2.24-.31.35A23.3,23.3,0,0,1,32,63.38L19,75.89a40.56,40.56,0,0,0,43.13,4.78Z"/><path class="cls-6" d="M50.47,74.9c-20.78,0-37.63-17.27-37.63-38.58A38.64,38.64,0,0,1,35.23,1,40.85,40.85,0,0,0,14.07,13.52a43.34,43.34,0,0,0-6.24,48.8l-5,4.76a9.05,9.05,0,0,0,0,13,8.53,8.53,0,0,0,11.85,0L19,75.89a40.65,40.65,0,0,0,55.62-4.6,42.65,42.65,0,0,0,9.76-18.23A37.54,37.54,0,0,1,50.47,74.9Z"/><polygon class="cls-7" points="67 28.55 58.81 28.22 58.84 26.34 67.02 26.66 67 28.55"/><polygon class="cls-8" points="69.1 45.14 70.81 46.99 69.17 48.87 70.21 50.1 68.48 51.75 67.51 51.73 68.14 52.21 67.51 53.48 64.97 52.98 65.06 50.54 65.18 47.41 66.07 44.18 69.1 45.14"/><polygon class="cls-9" points="59.11 49.45 60.24 55.86 59.5 56.86 53.44 64.86 48.36 62.58 59.11 49.45"/><polygon class="cls-10" points="59.2 49.85 57.89 52.41 59.29 57.18 59.93 56.36 59.2 49.85"/><path class="cls-11" d="M64.28,56.84l-3.49-.17c-.62,0-1.14-.34-1.18-.71L57.83,36.41l9.84.46-2.2,19.36C65.43,56.6,64.91,56.87,64.28,56.84Z"/><g class="cls-12"><path class="cls-11" d="M63.74,56.82l.56,0c.63,0,1.15-.23,1.19-.6l2.19-19.37-2.85-.13Z"/></g><path class="cls-9" d="M70.1,46.78s-2.3.09-3.12.09-1.52,0-2.59.09l-2.09.15a1,1,0,0,0-.87.94v0a1.15,1.15,0,0,0,1,.94l.58.13a7,7,0,0,0,1.71.18l1.24,0,4.19,0A1.7,1.7,0,0,0,71,49h0a.92.92,0,0,0,.44-1l-.09-.3A1.41,1.41,0,0,0,70.1,46.78Z"/><path class="cls-9" d="M69.28,49.75,65,49.53a10.92,10.92,0,0,0-1.28,0l-1,.07a1.11,1.11,0,0,0-1.1.76v0c-.09.44.26.89.84,1.09h0a6.23,6.23,0,0,0,1.78.33l3.56.13a6.12,6.12,0,0,0,2-.23h0a.85.85,0,0,0,.68-.66l0-.25a1,1,0,0,0-.77-1h0A1.51,1.51,0,0,0,69.28,49.75Z"/><path class="cls-9" d="M69.75,46.41l-4.28.25a11.28,11.28,0,0,1-1.3,0l-1.08-.07a1.42,1.42,0,0,1-1.27-.79h0a.91.91,0,0,1,.64-1.15h0a5.3,5.3,0,0,1,1.75-.36l3.6-.16a6.5,6.5,0,0,1,2.06.24h0a1.13,1.13,0,0,1,.82.69l.09.26a.83.83,0,0,1-.6,1h0A1.4,1.4,0,0,1,69.75,46.41Z"/><path class="cls-9" d="M61.73,52.44l0,.09a.64.64,0,0,0,.51.77l1.44.48a6.41,6.41,0,0,0,2.1.33l1.86,0a.89.89,0,0,0,.9-.56l.19-.69c.09-.32-.23-.63-.67-.64L64,52.07,62.61,52A.82.82,0,0,0,61.73,52.44Z"/><path class="cls-9" d="M44.58,60.75l6.93-7.91a1.11,1.11,0,0,0,.28-.67l.26-6.73a2.79,2.79,0,0,1,1.32-2.19l2.71-1.86a5.48,5.48,0,0,1,1.44-.69l3.18-1a1.61,1.61,0,0,1,2,.76v0a1,1,0,0,1-.24,1L61.07,42.9a2.16,2.16,0,0,1-.72.48l-1.82.71s.06.57.08.89l.11,1.21a5.4,5.4,0,0,1-.44,5.44L57,53.75l-8.6,8.83Z"/><path class="cls-13" d="M64.27,45h0a.69.69,0,0,1,.26.84h0a.78.78,0,0,1-.72.38H63a.89.89,0,0,1-.72-.32l0-.07a.47.47,0,0,1,0-.57h0a.7.7,0,0,1,.44-.26l.83-.18A1,1,0,0,1,64.27,45Z"/><path class="cls-13" d="M62,47.7a.71.71,0,0,1,.58-.32l1-.07a.81.81,0,0,1,.55.15h0a.68.68,0,0,1,.13,1.08l-.07.07a.74.74,0,0,1-.52.19h-1a.94.94,0,0,1-.62-.25h0a.63.63,0,0,1-.11-.77Z"/><path class="cls-13" d="M62.2,50.87l0,0a.67.67,0,0,0,.43.23l.7.11a1,1,0,0,0,.66-.14l.22-.15a.46.46,0,0,0,.09-.73h0a1,1,0,0,0-.65-.27h-1a.61.61,0,0,0-.53.23h0A.59.59,0,0,0,62.2,50.87Z"/><path class="cls-13" d="M62.07,52.38v0a.58.58,0,0,0,0,.48h0a.35.35,0,0,0,.27.21l1,.16a.51.51,0,0,0,.47-.14h0a.56.56,0,0,0,.07-.64h0a.47.47,0,0,0-.4-.22l-1,0A.36.36,0,0,0,62.07,52.38Z"/><path class="cls-13" d="M59.29,40.52l.77.32a1.52,1.52,0,0,0,1.22,0l.62-.31A.33.33,0,0,0,62,40h0a1.3,1.3,0,0,0-.6-.33h0a.94.94,0,0,0-.55,0l-1.68.6h0C59.1,40.33,59.15,40.46,59.29,40.52Z"/><polygon class="cls-14" points="70.14 39.53 55.36 38.95 55.52 27.81 70.3 28.39 70.14 39.53"/><path class="cls-15" d="M65.21,18.19a.69.69,0,0,1-.71-.59h0a.65.65,0,0,1,.73-.54l4.6.18-.12-.62a1.93,1.93,0,0,0-1.92-1.38l-4.69-.18-4.69-.19a1.83,1.83,0,0,0-2,1.23l-.14.61,4.6.18a.68.68,0,0,1,.71.59h0a.65.65,0,0,1-.72.54l-4.82-.19c-.07.35-.12.69-.17,1l5,.2a.67.67,0,0,1,.71.59h0a.64.64,0,0,1-.73.53l-5-.2q0,.53,0,1.05l5.07.2a.68.68,0,0,1,.71.59h0a.65.65,0,0,1-.73.54l-5-.2c0,.35,0,.7.1,1l4.9.19a.67.67,0,0,1,.7.59v0c0,.31-.32.54-.72.53l-4.7-.19.21,1.15a2,2,0,0,0,1.92,1.39l4.69.18,4.69.18a1.84,1.84,0,0,0,2-1.23l.24-1.13-4.7-.18a.68.68,0,0,1-.71-.59h0a.64.64,0,0,1,.72-.54l4.9.19c.06-.34.1-.69.13-1l-5-.2a.67.67,0,0,1-.71-.59h0a.63.63,0,0,1,.72-.53l5.07.2c0-.35,0-.7,0-1.05l-5.06-.2a.67.67,0,0,1-.71-.59h0a.65.65,0,0,1,.72-.54l5,.2c0-.35-.08-.7-.13-1.05Z"/><path class="cls-7" d="M61.62,17.48h0a.68.68,0,0,0-.71-.59l-4.6-.18-.15.69c0,.15,0,.29-.08.44L60.9,18A.65.65,0,0,0,61.62,17.48Z"/><path class="cls-7" d="M61.59,19.67h0a.67.67,0,0,0-.71-.59l-5-.2c0,.38-.08.76-.1,1.13l5,.2A.64.64,0,0,0,61.59,19.67Z"/><path class="cls-7" d="M61.56,21.85h0a.68.68,0,0,0-.71-.59l-5.07-.2c0,.38,0,.76,0,1.14l5,.2A.65.65,0,0,0,61.56,21.85Z"/><path class="cls-7" d="M61.52,24v0a.67.67,0,0,0-.7-.59l-4.9-.19c0,.33.09.65.15,1l0,.16,4.7.19C61.2,24.58,61.52,24.35,61.52,24Z"/><path class="cls-7" d="M64.5,17.59h0a.69.69,0,0,0,.71.59l4.82.19c0-.15,0-.3-.08-.45l-.12-.7-4.6-.18A.65.65,0,0,0,64.5,17.59Z"/><path class="cls-7" d="M64.47,19.77h0a.67.67,0,0,0,.71.59l5.06.2c0-.38,0-.76-.08-1.14l-5-.2A.65.65,0,0,0,64.47,19.77Z"/><path class="cls-7" d="M64.44,22h0a.67.67,0,0,0,.71.59l5,.2c0-.38.06-.75.07-1.13l-5.07-.2A.63.63,0,0,0,64.44,22Z"/><path class="cls-7" d="M64.41,24.14h0a.68.68,0,0,0,.71.59l4.7.18,0-.16c.06-.32.12-.64.17-1l-4.9-.19A.64.64,0,0,0,64.41,24.14Z"/><path class="cls-16" d="M133,21.75a2.66,2.66,0,0,1,2,.6,2.94,2.94,0,0,1,.57,2v5.69a3.08,3.08,0,0,1-.57,2.12,2.66,2.66,0,0,1-2,.6H117.23v5.63h12.56a2.69,2.69,0,0,1,2,.6,2.94,2.94,0,0,1,.56,2.05v5.69a3.08,3.08,0,0,1-.56,2.12,2.69,2.69,0,0,1-2,.6H117.23v6.07h16.26a2.67,2.67,0,0,1,1.93.57,2.91,2.91,0,0,1,.57,2.08V64a3,3,0,0,1-.57,2.06,2.58,2.58,0,0,1-1.93.6H108a2.67,2.67,0,0,1-2-.6,3,3,0,0,1-.57-2.06V24.4a2.94,2.94,0,0,1,.57-2,2.67,2.67,0,0,1,2-.6Z"/><path class="cls-16" d="M172.42,21.75a2.7,2.7,0,0,1,2,.6,3,3,0,0,1,.56,2v5.69a3.13,3.13,0,0,1-.56,2.12,2.7,2.7,0,0,1-2,.6H156.7v7.33h12.57a2.67,2.67,0,0,1,2,.6,3,3,0,0,1,.57,2.06v5.69a3,3,0,0,1-.57,2.11,2.63,2.63,0,0,1-2,.6H156.7V64a3.09,3.09,0,0,1-.53,2.06,2.58,2.58,0,0,1-2,.6h-6.72a2.69,2.69,0,0,1-2-.6,3,3,0,0,1-.56-2.06V24.4a2.94,2.94,0,0,1,.56-2,2.69,2.69,0,0,1,2-.6Z"/><path class="cls-16" d="M211.12,21.75a2.66,2.66,0,0,1,2,.6,2.94,2.94,0,0,1,.57,2v5.69a3.08,3.08,0,0,1-.57,2.12,2.66,2.66,0,0,1-2,.6H195.4v7.33H208a2.67,2.67,0,0,1,2,.6,3,3,0,0,1,.56,2.06v5.69A3.05,3.05,0,0,1,210,50.6a2.63,2.63,0,0,1-2,.6H195.4V64a3.15,3.15,0,0,1-.53,2.06,2.59,2.59,0,0,1-2,.6h-6.73a2.67,2.67,0,0,1-2-.6,3,3,0,0,1-.57-2.06V24.4a2.94,2.94,0,0,1,.57-2,2.67,2.67,0,0,1,2-.6Z"/><path class="cls-16" d="M249.82,21.75a2.66,2.66,0,0,1,2,.6,2.94,2.94,0,0,1,.57,2v5.69a3.08,3.08,0,0,1-.57,2.12,2.66,2.66,0,0,1-2,.6H234.1v5.63h12.56a2.69,2.69,0,0,1,2,.6,3,3,0,0,1,.56,2.05v5.69a3.13,3.13,0,0,1-.56,2.12,2.69,2.69,0,0,1-2,.6H234.1v6.07h16.25a2.68,2.68,0,0,1,1.94.57,2.91,2.91,0,0,1,.56,2.08V64a3,3,0,0,1-.56,2.06,2.59,2.59,0,0,1-1.94.6H224.87a2.66,2.66,0,0,1-2-.6,3,3,0,0,1-.57-2.06V24.4a2.94,2.94,0,0,1,.57-2,2.66,2.66,0,0,1,2-.6Z"/><path class="cls-16" d="M260.42,38.5q0-8.28,4.79-13t13.54-4.71q13.46,0,17.39,11.06a3,3,0,0,1,.09,2.18,2.77,2.77,0,0,1-1.7,1.24l-6.37,2.4a2.82,2.82,0,0,1-2.05.09,3,3,0,0,1-1.17-1.8q-1.54-4.11-6.19-4.11-3.45,0-5,1.61a7,7,0,0,0-1.55,5v11.5a6.94,6.94,0,0,0,1.55,5c1,1.08,2.7,1.61,5,1.61,3.18,0,5.24-1.36,6.19-4.1a3.29,3.29,0,0,1,1.2-1.87,2.59,2.59,0,0,1,2,.16l6.37,2.4a2.8,2.8,0,0,1,1.7,1.23,3,3,0,0,1-.09,2.18q-3.93,11.07-17.39,11.07-8.75,0-13.54-4.71t-4.79-13Z"/><path class="cls-16" d="M334.36,21.75a2.66,2.66,0,0,1,2,.6,2.94,2.94,0,0,1,.57,2v5.69a3.08,3.08,0,0,1-.57,2.12,2.66,2.66,0,0,1-2,.6h-8.81V64A3,3,0,0,1,325,66a2.67,2.67,0,0,1-2,.6h-6.73a2.55,2.55,0,0,1-2-.6,3.08,3.08,0,0,1-.54-2.06V32.81h-8.87a2.59,2.59,0,0,1-2-.6,3.26,3.26,0,0,1-.53-2.12V24.4a3.11,3.11,0,0,1,.53-2,2.59,2.59,0,0,1,2-.6Z"/><path class="cls-16" d="M347.58,54.62c1.74,0,2.95.37,3.63,1.1a5.82,5.82,0,0,1,1,3.89V62.2c0,1.86-.34,3.14-1,3.86s-1.89,1.07-3.63,1.07h-2.27c-1.78,0-3-.35-3.69-1.07s-1-2-1-3.86V59.61a5.82,5.82,0,0,1,1-3.89c.68-.73,1.91-1.1,3.69-1.1Z"/><path class="cls-16" d="M372.46,50.7c0,3.88,2,5.81,6.13,5.81s6.2-1.93,6.2-5.81V24.4a3.06,3.06,0,0,1,.53-2,2.58,2.58,0,0,1,2-.6H394a2.69,2.69,0,0,1,2,.6,3,3,0,0,1,.56,2V50.13q0,8.1-4.64,12.77t-13.34,4.68q-8.62,0-13.27-4.68t-4.65-12.77V24.4a3.05,3.05,0,0,1,.54-2,2.56,2.56,0,0,1,2-.6h6.73a2.7,2.7,0,0,1,2,.6,3,3,0,0,1,.56,2Z"/><path class="cls-16" d="M435.63,21.75a2.55,2.55,0,0,1,2,.6,3.05,3.05,0,0,1,.54,2v3.8a5,5,0,0,1-.78,2.78L420.86,55.57h15.07a2.65,2.65,0,0,1,2,.57,3,3,0,0,1,.54,2.08V64a3.08,3.08,0,0,1-.54,2.06,2.56,2.56,0,0,1-2,.6H407.71a2.59,2.59,0,0,1-1.94-.6A3,3,0,0,1,405.2,64V60.12a4.54,4.54,0,0,1,.84-2.66l16.49-24.65H408a2.58,2.58,0,0,1-1.93-.6,3.08,3.08,0,0,1-.57-2.12V24.4a2.94,2.94,0,0,1,.57-2,2.58,2.58,0,0,1,1.93-.6Z"/></g></g></g></svg>